<svg height="30px" width="30px" viewBox="0 0 299.36 298.49" xmlns="http://www.w3.org/2000/svg">
    <ellipse cx="149.68" cy="149.24" rx="146.68" ry="146.24" stroke="#fff" stroke-miterlimit="10" stroke-width="6" />
    <g fill="#fff" transform="translate(-.05 -.41)">
        <path d="m203.77 156.92a35.75 35.75 0 1 1 -25.29-10.48 35.75 35.75 0 0 1 25.29 10.48zm1.28 25.3a26.43 26.43 0 1 0 0 .35z" />
        <path d="m196.45 125.74 7.05 7-.07.12-5 5-7.16-7c-1.15 1.13-2.35 2.32-4.46 4.44a15.29 15.29 0 0 1 -9.3 4.22 13.62 13.62 0 0 1 -11.06-4.19 13.83 13.83 0 0 1 -4.24-9.93 15.25 15.25 0 0 1 4.21-10.4l4.45-4.36c-2.12-2-5.1-5.19-5.1-10.44a12.84 12.84 0 0 1 3.5-8.69 12.57 12.57 0 0 1 17.73-.51l.24.24.13.15-.08.11-2.06 2-3 3-.1.11-.1-.11a5.1 5.1 0 0 0 -3.7-1.52 5.49 5.49 0 0 0 -3.74 1.59 5 5 0 0 0 -1.47 3.6 4.91 4.91 0 0 0 1.59 3.7l16.51 16.65 5-5 5.24 5.25zm-10.46 0-9.91-9.82-4.42 4.43a7.21 7.21 0 0 0 -2.06 5 6.74 6.74 0 0 0 2.06 4.84 6.83 6.83 0 0 0 9.66.18l.18-.18c2.11-2.06 4-4 4.49-4.46z" />
        <path d="m130.89 101.49a41.14 41.14 0 0 1 -9.72 65.33 27.75 27.75 0 0 1 -14.86 51.18h-13.59v-128.56h9.12a40.88 40.88 0 0 1 29.05 12.05zm2.83 29.07a31.87 31.87 0 0 0 -31.72-31.91v63.83a31.89 31.89 0 0 0 31.77-31.92zm-8.86 59.71a18.54 18.54 0 0 0 -18.52-18.56h-4.41v37.11h4.35a18.58 18.58 0 0 0 18.58-18.55z" />
    </g>
</svg>